# xmcd
#
# Track frame offsets:
#	150
#	13728
#	44718
#	75893
#	96013
#	109788
#	137294
#
# Disc length: 2200 seconds
#
# Revision: 1
# Processed by: cddbd v1.5.2PL0 Copyright (c) Steve Scherf et al.
# Submitted via: audiograbber 1.83.01
#
DISCID=4a089607
DTITLE=Scarzy - Johnny No Rhymes (Everybody's Gotta Learn)(Remixes)
DYEAR=2009
DGENRE=Dance
TTITLE0=Johnny No Rhymes (Radio Edit)
TTITLE1=Johnny No Rhymes (A1 Bassline Club Mix)
TTITLE2=Johnny No Rhymes (A1 Bassline Vocal Mix)
TTITLE3=Johnny No Rhymes (Big Ang Remix)
TTITLE4=Johnny No Rhymes (Ruff Loaderz Vocal Edit)
TTITLE5=Johnny No Rhymes (Ruff Loaderz Vocal Club Mix)
TTITLE6=Johnny No Rhymes (Ruff Loaderz Club Mix)
EXTD=
EXTT0=
EXTT1=
EXTT2=
EXTT3=
EXTT4=
EXTT5=
EXTT6=
PLAYORDER=
